<svg xmlns="http://www.w3.org/2000/svg" viewBox="0 0 330 100" width="330" height="100" fill="none">
  <defs><linearGradient id="g" x1="20" y1="80" x2="80" y2="20" gradientUnits="userSpaceOnUse"><stop stop-color="#0ea5e9"/><stop offset="1" stop-color="#67e8f9"/></linearGradient></defs>
  <path d="M26 26 L74 74" stroke="#2b3340" stroke-width="11" stroke-linecap="round"/>
  <path d="M24 78 L72 30" stroke="url(#g)" stroke-width="13" stroke-linecap="round"/>
  <path d="M55 26 L76 26 L76 47" stroke="url(#g)" stroke-width="13" stroke-linecap="round" stroke-linejoin="round"/>
  <g transform="translate(126.00 68.72) scale(0.52)">
    <path d="M22.70 -0.00 L22.70 -60.70 L39.09 -60.70 L39.09 -0.00 L22.70 -0.00 Z M2.20 -58.70 L2.20 -73.00 L59.70 -73.00 L59.70 -58.70 L2.20 -58.70 Z M69.10 -0.00 L69.10 -54.80 L81.80 -54.80 L81.80 -31.30 L81.50 -31.30 Q81.50 -42.91 86.44 -49.20 Q91.39 -55.50 100.80 -55.50 L102.89 -55.50 L102.89 -41.70 L98.89 -41.70 Q92.30 -41.70 88.69 -38.14 Q85.10 -34.59 85.10 -27.91 L85.10 -0.00 L69.10 -0.00 Z M144.31 -0.00 L144.31 -16.20 L141.60 -16.20 L141.60 -33.80 Q141.60 -38.00 139.60 -40.09 Q137.60 -42.20 133.20 -42.20 Q130.99 -42.20 127.40 -42.09 Q123.81 -42.00 119.99 -41.80 Q116.20 -41.59 113.10 -41.41 L113.10 -54.91 Q115.40 -55.09 118.49 -55.30 Q121.60 -55.50 124.90 -55.59 Q128.20 -55.70 131.10 -55.70 Q139.49 -55.70 145.24 -53.30 Q150.99 -50.91 153.99 -46.05 Q156.99 -41.20 156.99 -33.59 L156.99 -0.00 L144.31 -0.00 Z M126.81 1.41 Q120.90 1.41 116.45 -0.69 Q111.99 -2.80 109.49 -6.75 Q106.99 -10.70 106.99 -16.20 Q106.99 -22.20 110.09 -26.05 Q113.20 -29.91 118.79 -31.75 Q124.40 -33.59 131.70 -33.59 L143.40 -33.59 L143.40 -24.70 L131.60 -24.70 Q127.40 -24.70 125.15 -22.64 Q122.90 -20.59 122.90 -17.09 Q122.90 -13.80 125.15 -11.75 Q127.40 -9.70 131.60 -9.70 Q134.31 -9.70 136.45 -10.64 Q138.60 -11.59 139.99 -13.89 Q141.40 -16.20 141.60 -20.30 L145.40 -16.30 Q144.90 -10.59 142.65 -6.69 Q140.40 -2.80 136.45 -0.69 Q132.49 1.41 126.81 1.41 Z M193.21 1.80 Q187.39 1.80 182.64 -0.30 Q177.89 -2.41 174.39 -6.16 Q170.89 -9.91 169.05 -15.00 Q167.21 -20.09 167.21 -26.00 L167.21 -28.30 Q167.21 -34.20 168.96 -39.30 Q170.71 -44.41 174.05 -48.25 Q177.39 -52.09 182.10 -54.25 Q186.80 -56.41 192.60 -56.41 Q199.21 -56.41 204.00 -53.55 Q208.80 -50.70 211.50 -45.14 Q214.21 -39.59 214.50 -31.50 L210.30 -35.41 L210.30 -73.00 L226.39 -73.00 L226.39 -0.00 L213.71 -0.00 L213.71 -22.70 L215.89 -22.70 Q215.60 -14.91 212.64 -9.41 Q209.71 -3.91 204.71 -1.05 Q199.71 1.80 193.21 1.80 Z M197.21 -11.59 Q200.89 -11.59 203.94 -13.25 Q207.00 -14.91 208.85 -18.09 Q210.71 -21.30 210.71 -25.80 L210.71 -29.50 Q210.71 -33.91 208.80 -36.91 Q206.89 -39.91 203.80 -41.50 Q200.71 -43.09 197.10 -43.09 Q193.10 -43.09 189.94 -41.05 Q186.80 -39.00 185.00 -35.45 Q183.21 -31.91 183.21 -27.20 Q183.21 -22.41 185.00 -18.91 Q186.80 -15.41 190.00 -13.50 Q193.21 -11.59 197.21 -11.59 Z M266.01 1.91 Q259.01 1.91 253.65 -0.50 Q248.30 -2.91 244.74 -6.95 Q241.19 -11.00 239.35 -16.05 Q237.51 -21.09 237.51 -26.41 L237.51 -28.41 Q237.51 -33.91 239.35 -38.95 Q241.19 -44.00 244.69 -48.00 Q248.19 -52.00 253.44 -54.34 Q258.69 -56.70 265.40 -56.70 Q274.19 -56.70 280.24 -52.75 Q286.30 -48.80 289.49 -42.44 Q292.69 -36.09 292.69 -28.59 L292.69 -23.20 L244.19 -23.20 L244.19 -32.30 L283.01 -32.30 L277.80 -28.09 Q277.80 -33.00 276.40 -36.50 Q275.01 -40.00 272.26 -41.84 Q269.51 -43.70 265.40 -43.70 Q261.19 -43.70 258.29 -41.80 Q255.40 -39.91 253.90 -36.25 Q252.40 -32.59 252.40 -27.30 Q252.40 -22.41 253.79 -18.75 Q255.19 -15.09 258.19 -13.09 Q261.19 -11.09 266.01 -11.09 Q270.40 -11.09 273.19 -12.80 Q276.01 -14.50 277.01 -17.00 L291.69 -17.00 Q290.51 -11.50 287.01 -7.20 Q283.51 -2.91 278.19 -0.50 Q272.90 1.91 266.01 1.91 Z" fill="#0f172a"/>
  </g>
  <g transform="translate(288.60 68.72) scale(0.52)">
    <path d="M0.59 -0.00 L24.80 -38.80 L25.00 -37.20 L2.59 -73.00 L23.00 -73.00 L35.50 -51.91 L38.09 -51.91 L50.20 -73.00 L70.00 -73.00 L47.70 -37.00 L47.41 -38.59 L72.41 -0.00 L52.00 -0.00 L37.09 -24.09 L34.50 -24.09 L20.41 -0.00 L0.59 -0.00 Z" fill="#38bdf8"/>
  </g>
</svg>
