<svg xmlns="http://www.w3.org/2000/svg" width="512" height="512" viewBox="0 0 16 16" shape-rendering="crispEdges">
<rect width="16" height="16" fill="#E1F5EE"/>
<rect x="4" y="4" width="3" height="1" fill="#639922"/>
<rect x="9" y="4" width="3" height="1" fill="#639922"/>
<rect x="3" y="5" width="1" height="1" fill="#639922"/>
<rect x="4" y="5" width="3" height="1" fill="#C0DD97"/>
<rect x="7" y="5" width="2" height="1" fill="#639922"/>
<rect x="9" y="5" width="3" height="1" fill="#C0DD97"/>
<rect x="12" y="5" width="1" height="1" fill="#639922"/>
<rect x="3" y="6" width="1" height="1" fill="#639922"/>
<rect x="4" y="6" width="1" height="1" fill="#C0DD97"/>
<rect x="5" y="6" width="1" height="1" fill="#173404"/>
<rect x="6" y="6" width="1" height="1" fill="#C0DD97"/>
<rect x="7" y="6" width="2" height="1" fill="#639922"/>
<rect x="9" y="6" width="1" height="1" fill="#C0DD97"/>
<rect x="10" y="6" width="1" height="1" fill="#173404"/>
<rect x="11" y="6" width="1" height="1" fill="#C0DD97"/>
<rect x="12" y="6" width="1" height="1" fill="#639922"/>
<rect x="2" y="7" width="12" height="1" fill="#639922"/>
<rect x="2" y="8" width="12" height="1" fill="#639922"/>
<rect x="2" y="9" width="1" height="1" fill="#639922"/>
<rect x="3" y="9" width="1" height="1" fill="#ED93B1"/>
<rect x="4" y="9" width="8" height="1" fill="#639922"/>
<rect x="12" y="9" width="1" height="1" fill="#ED93B1"/>
<rect x="13" y="9" width="1" height="1" fill="#639922"/>
<rect x="2" y="10" width="3" height="1" fill="#639922"/>
<rect x="5" y="10" width="6" height="1" fill="#173404"/>
<rect x="11" y="10" width="3" height="1" fill="#639922"/>
<rect x="3" y="11" width="10" height="1" fill="#639922"/>
<rect x="4" y="12" width="8" height="1" fill="#C0DD97"/>
</svg>